<?xml version="1.0" encoding="UTF-8" standalone="no"?>
<svg width="284.339mm" height="171.45mm"
 viewBox="0 0 806 486"
 xmlns="http://www.w3.org/2000/svg" xmlns:xlink="http://www.w3.org/1999/xlink"  version="1.2" baseProfile="tiny">
<title>Qt SVG Document</title>
<desc>MATLAB, The MathWorks, Inc. Version 25.2.0.3123386 R2025b Update 3</desc>
<defs>
</defs>
<g fill="none" stroke="black" stroke-width="1" fill-rule="evenodd" stroke-linecap="square" stroke-linejoin="bevel" >

<g fill="#ffffff" fill-opacity="1" stroke="none" transform="matrix(0.75,0,0,0.75,0,0)"
font-family="MS Shell Dlg 2" font-size="8.25" font-weight="400" font-style="normal" 
>
<path vector-effect="none" fill-rule="evenodd" d="M0,0 L1075,0 L1075,648 L0,648 L0,0"/>
</g>

<g fill="#ffffff" fill-opacity="1" stroke="none" transform="matrix(7.5e-05,0,0,7.5e-05,0,0)"
font-family="MS Shell Dlg 2" font-size="8.25" font-weight="400" font-style="normal" 
>
<path vector-effect="none" fill-rule="evenodd" d="M1.4e+06,1e+06 L1.4e+06,5.82e+06 L9.72e+06,5.82e+06 L9.72e+06,1e+06 L1.4e+06,1e+06"/>
</g>

<g fill="#212121" fill-opacity="0.14902" stroke="#212121" stroke-opacity="0.14902" stroke-width="0.666667" stroke-linecap="butt" stroke-linejoin="round" transform="matrix(0.75,0,0,0.75,0,0)"
font-family="MS Shell Dlg 2" font-size="8.25" font-weight="400" font-style="normal" 
>
<polyline fill="none" vector-effect="none" points="243.131,100 243.131,582 " />
<polyline fill="none" vector-effect="none" points="451.71,100 451.71,582 " />
<polyline fill="none" vector-effect="none" points="660.29,100 660.29,582 " />
<polyline fill="none" vector-effect="none" points="868.869,100 868.869,582 " />
<polyline fill="none" vector-effect="none" points="140,521.366 972,521.366 " />
<polyline fill="none" vector-effect="none" points="140,439.829 972,439.829 " />
<polyline fill="none" vector-effect="none" points="140,358.291 972,358.291 " />
<polyline fill="none" vector-effect="none" points="140,276.754 972,276.754 " />
<polyline fill="none" vector-effect="none" points="140,195.217 972,195.217 " />
<polyline fill="none" vector-effect="none" points="140,113.679 972,113.679 " />
</g>

<g fill="#212121" fill-opacity="1" stroke="#212121" stroke-opacity="1" stroke-width="1" stroke-linecap="square" stroke-linejoin="bevel" transform="matrix(0.75,0,0,0.75,261.375,69.525)"
font-family="Helvetica" font-size="17" font-weight="700" font-style="normal" 
>
<text fill="#212121" fill-opacity="1" stroke="none" xml:space="preserve" x="0" y="0" font-family="Helvetica" font-size="17" font-weight="700" font-style="normal" 
 >Quaternion Comparison | Angular Error: 0.64 arcsec</text>
</g>

<g fill="#212121" fill-opacity="1" stroke="#212121" stroke-opacity="1" stroke-width="0.666667" stroke-linecap="butt" stroke-linejoin="round" transform="matrix(0.75,0,0,0.75,0,0)"
font-family="Helvetica" font-size="17" font-weight="700" font-style="normal" 
>
<polyline fill="none" vector-effect="none" points="140,521.366 972,521.366 " />
</g>

<g fill="#33b333" fill-opacity="1" stroke="none" transform="matrix(7.5e-05,0,0,7.5e-05,0,0)"
font-family="Helvetica" font-size="17" font-weight="700" font-style="normal" 
>
<path vector-effect="none" fill-rule="evenodd" d="M1.77081e+06,1.38306e+06 L1.77081e+06,5.21366e+06 L2.16479e+06,5.21366e+06 L2.16479e+06,1.38306e+06 L1.77081e+06,1.38306e+06"/>
</g>

<g fill="#33b333" fill-opacity="1" stroke="none" transform="matrix(7.5e-05,0,0,7.5e-05,0,0)"
font-family="Helvetica" font-size="17" font-weight="700" font-style="normal" 
>
<path vector-effect="none" fill-rule="evenodd" d="M3.8566e+06,3.94904e+06 L3.8566e+06,5.21366e+06 L4.25059e+06,5.21366e+06 L4.25059e+06,3.94904e+06 L3.8566e+06,3.94904e+06"/>
</g>

<g fill="#33b333" fill-opacity="1" stroke="none" transform="matrix(7.5e-05,0,0,7.5e-05,0,0)"
font-family="Helvetica" font-size="17" font-weight="700" font-style="normal" 
>
<path vector-effect="none" fill-rule="evenodd" d="M5.9424e+06,5.21366e+06 L5.9424e+06,5.424e+06 L6.33638e+06,5.424e+06 L6.33638e+06,5.21366e+06 L5.9424e+06,5.21366e+06"/>
</g>

<g fill="#33b333" fill-opacity="1" stroke="none" transform="matrix(7.5e-05,0,0,7.5e-05,0,0)"
font-family="Helvetica" font-size="17" font-weight="700" font-style="normal" 
>
<path vector-effect="none" fill-rule="evenodd" d="M8.02819e+06,5.21366e+06 L8.02819e+06,5.76487e+06 L8.42217e+06,5.76487e+06 L8.42217e+06,5.21366e+06 L8.02819e+06,5.21366e+06"/>
</g>

<g fill="none" stroke="#000000" stroke-opacity="1" stroke-width="1.6" stroke-linecap="butt" stroke-linejoin="miter" stroke-miterlimit="5" transform="matrix(0.75,0,0,0.75,0,0)"
font-family="Helvetica" font-size="17" font-weight="700" font-style="normal" 
>
<path vector-effect="none" fill-rule="evenodd" d="M177.081,521.366 L177.081,138.306 L216.479,138.306 L216.479,521.366 L177.081,521.366"/>
<path vector-effect="none" fill-rule="evenodd" d="M385.66,521.366 L385.66,394.904 L425.059,394.904 L425.059,521.366 L385.66,521.366"/>
<path vector-effect="none" fill-rule="evenodd" d="M594.24,521.366 L594.24,542.4 L633.638,542.4 L633.638,521.366 L594.24,521.366"/>
<path vector-effect="none" fill-rule="evenodd" d="M802.819,521.366 L802.819,576.487 L842.217,576.487 L842.217,521.366 L802.819,521.366"/>
</g>

<g fill="#3380e6" fill-opacity="1" stroke="none" transform="matrix(7.5e-05,0,0,7.5e-05,0,0)"
font-family="Helvetica" font-size="17" font-weight="700" font-style="normal" 
>
<path vector-effect="none" fill-rule="evenodd" d="M2.23432e+06,1.38306e+06 L2.23432e+06,5.21366e+06 L2.6283e+06,5.21366e+06 L2.6283e+06,1.38306e+06 L2.23432e+06,1.38306e+06"/>
</g>

<g fill="#3380e6" fill-opacity="1" stroke="none" transform="matrix(7.5e-05,0,0,7.5e-05,0,0)"
font-family="Helvetica" font-size="17" font-weight="700" font-style="normal" 
>
<path vector-effect="none" fill-rule="evenodd" d="M4.32011e+06,3.94904e+06 L4.32011e+06,5.21366e+06 L4.7141e+06,5.21366e+06 L4.7141e+06,3.94904e+06 L4.32011e+06,3.94904e+06"/>
</g>

<g fill="#3380e6" fill-opacity="1" stroke="none" transform="matrix(7.5e-05,0,0,7.5e-05,0,0)"
font-family="Helvetica" font-size="17" font-weight="700" font-style="normal" 
>
<path vector-effect="none" fill-rule="evenodd" d="M6.40591e+06,5.21366e+06 L6.40591e+06,5.424e+06 L6.79989e+06,5.424e+06 L6.79989e+06,5.21366e+06 L6.40591e+06,5.21366e+06"/>
</g>

<g fill="#3380e6" fill-opacity="1" stroke="none" transform="matrix(7.5e-05,0,0,7.5e-05,0,0)"
font-family="Helvetica" font-size="17" font-weight="700" font-style="normal" 
>
<path vector-effect="none" fill-rule="evenodd" d="M8.4917e+06,5.21366e+06 L8.4917e+06,5.76488e+06 L8.88568e+06,5.76488e+06 L8.88568e+06,5.21366e+06 L8.4917e+06,5.21366e+06"/>
</g>

<g fill="none" stroke="#000000" stroke-opacity="1" stroke-width="1.6" stroke-linecap="butt" stroke-linejoin="miter" stroke-miterlimit="5" transform="matrix(0.75,0,0,0.75,0,0)"
font-family="Helvetica" font-size="17" font-weight="700" font-style="normal" 
>
<path vector-effect="none" fill-rule="evenodd" d="M223.432,521.366 L223.432,138.306 L262.83,138.306 L262.83,521.366 L223.432,521.366"/>
<path vector-effect="none" fill-rule="evenodd" d="M432.011,521.366 L432.011,394.904 L471.409,394.904 L471.409,521.366 L432.011,521.366"/>
<path vector-effect="none" fill-rule="evenodd" d="M640.591,521.366 L640.591,542.4 L679.989,542.4 L679.989,521.366 L640.591,521.366"/>
<path vector-effect="none" fill-rule="evenodd" d="M849.17,521.366 L849.17,576.488 L888.568,576.488 L888.568,521.366 L849.17,521.366"/>
</g>

<g fill="#e64d33" fill-opacity="1" stroke="none" transform="matrix(7.5e-05,0,0,7.5e-05,0,0)"
font-family="Helvetica" font-size="17" font-weight="700" font-style="normal" 
>
<path vector-effect="none" fill-rule="evenodd" d="M4.78362e+06,5.21366e+06 L4.78362e+06,5.21366e+06 L5.1776e+06,5.21366e+06 L5.1776e+06,5.21366e+06 L4.78362e+06,5.21366e+06"/>
</g>

<g fill="#e64d33" fill-opacity="1" stroke="none" transform="matrix(7.5e-05,0,0,7.5e-05,0,0)"
font-family="Helvetica" font-size="17" font-weight="700" font-style="normal" 
>
<path vector-effect="none" fill-rule="evenodd" d="M6.86942e+06,5.21366e+06 L6.86942e+06,5.21366e+06 L7.2634e+06,5.21366e+06 L7.2634e+06,5.21366e+06 L6.86942e+06,5.21366e+06"/>
</g>

<g fill="#e64d33" fill-opacity="1" stroke="none" transform="matrix(7.5e-05,0,0,7.5e-05,0,0)"
font-family="Helvetica" font-size="17" font-weight="700" font-style="normal" 
>
<path vector-effect="none" fill-rule="evenodd" d="M8.95521e+06,5.21366e+06 L8.95521e+06,5.21367e+06 L9.34919e+06,5.21367e+06 L9.34919e+06,5.21366e+06 L8.95521e+06,5.21366e+06"/>
</g>

<g fill="none" stroke="#000000" stroke-opacity="1" stroke-width="1.6" stroke-linecap="butt" stroke-linejoin="miter" stroke-miterlimit="5" transform="matrix(0.75,0,0,0.75,0,0)"
font-family="Helvetica" font-size="17" font-weight="700" font-style="normal" 
>
<path vector-effect="none" fill-rule="evenodd" d="M269.783,521.366 L309.181,521.366 L269.783,521.366"/>
<path vector-effect="none" fill-rule="evenodd" d="M478.362,521.366 L478.362,521.366 L517.76,521.366 L517.76,521.366 L478.362,521.366"/>
<path vector-effect="none" fill-rule="evenodd" d="M686.942,521.366 L686.942,521.366 L726.34,521.366 L726.34,521.366 L686.942,521.366"/>
<path vector-effect="none" fill-rule="evenodd" d="M895.521,521.366 L895.521,521.367 L934.919,521.367 L934.919,521.366 L895.521,521.366"/>
</g>

<g fill="#212121" fill-opacity="1" stroke="#212121" stroke-opacity="1" stroke-width="1" stroke-linecap="square" stroke-linejoin="bevel" transform="matrix(0.75,0,0,0.75,347.25,469.943)"
font-family="Helvetica" font-size="17" font-weight="700" font-style="normal" 
>
<text fill="#212121" fill-opacity="1" stroke="none" xml:space="preserve" x="0" y="0" font-family="Helvetica" font-size="17" font-weight="700" font-style="normal" 
 >Quaternion Component</text>
</g>

<g fill="#212121" fill-opacity="1" stroke="#212121" stroke-opacity="1" stroke-width="0.666667" stroke-linecap="square" stroke-linejoin="round" transform="matrix(0.75,0,0,0.75,0,0)"
font-family="Helvetica" font-size="17" font-weight="700" font-style="normal" 
>
<polyline fill="none" vector-effect="none" points="140,582 972,582 " />
<polyline fill="none" vector-effect="none" points="140,100 972,100 " />
<polyline fill="none" vector-effect="none" points="243.131,582 243.131,573.68 " />
<polyline fill="none" vector-effect="none" points="243.131,108.32 243.131,100 " />
<polyline fill="none" vector-effect="none" points="451.71,582 451.71,573.68 " />
<polyline fill="none" vector-effect="none" points="451.71,108.32 451.71,100 " />
<polyline fill="none" vector-effect="none" points="660.29,582 660.29,573.68 " />
<polyline fill="none" vector-effect="none" points="660.29,108.32 660.29,100 " />
<polyline fill="none" vector-effect="none" points="868.869,582 868.869,573.68 " />
<polyline fill="none" vector-effect="none" points="868.869,108.32 868.869,100 " />
</g>

<g fill="#212121" fill-opacity="1" stroke="#212121" stroke-opacity="1" stroke-width="1" stroke-linecap="square" stroke-linejoin="bevel" transform="matrix(0.75,0,0,0.75,175.5,452.25)"
font-family="Helvetica" font-size="16" font-weight="400" font-style="normal" 
>
<text fill="#212121" fill-opacity="1" stroke="none" xml:space="preserve" x="0" y="0" font-family="Helvetica" font-size="16" font-weight="400" font-style="normal" 
 >q</text>
</g>

<g fill="#212121" fill-opacity="1" stroke="#212121" stroke-opacity="1" stroke-width="1" stroke-linecap="square" stroke-linejoin="bevel" transform="matrix(0.75,0,0,0.75,182.25,458.25)"
font-family="Helvetica" font-size="12" font-weight="400" font-style="normal" 
>
<text fill="#212121" fill-opacity="1" stroke="none" xml:space="preserve" x="0" y="0" font-family="Helvetica" font-size="12" font-weight="400" font-style="normal" 
 >w</text>
</g>

<g fill="#212121" fill-opacity="1" stroke="#212121" stroke-opacity="1" stroke-width="1" stroke-linecap="square" stroke-linejoin="bevel" transform="matrix(0.75,0,0,0.75,333,452.25)"
font-family="Helvetica" font-size="16" font-weight="400" font-style="normal" 
>
<text fill="#212121" fill-opacity="1" stroke="none" xml:space="preserve" x="0" y="0" font-family="Helvetica" font-size="16" font-weight="400" font-style="normal" 
 >q</text>
</g>

<g fill="#212121" fill-opacity="1" stroke="#212121" stroke-opacity="1" stroke-width="1" stroke-linecap="square" stroke-linejoin="bevel" transform="matrix(0.75,0,0,0.75,339.75,458.25)"
font-family="Helvetica" font-size="12" font-weight="400" font-style="normal" 
>
<text fill="#212121" fill-opacity="1" stroke="none" xml:space="preserve" x="0" y="0" font-family="Helvetica" font-size="12" font-weight="400" font-style="normal" 
 >x</text>
</g>

<g fill="#212121" fill-opacity="1" stroke="#212121" stroke-opacity="1" stroke-width="1" stroke-linecap="square" stroke-linejoin="bevel" transform="matrix(0.75,0,0,0.75,489,452.25)"
font-family="Helvetica" font-size="16" font-weight="400" font-style="normal" 
>
<text fill="#212121" fill-opacity="1" stroke="none" xml:space="preserve" x="0" y="0" font-family="Helvetica" font-size="16" font-weight="400" font-style="normal" 
 >q</text>
</g>

<g fill="#212121" fill-opacity="1" stroke="#212121" stroke-opacity="1" stroke-width="1" stroke-linecap="square" stroke-linejoin="bevel" transform="matrix(0.75,0,0,0.75,495.75,458.25)"
font-family="Helvetica" font-size="12" font-weight="400" font-style="normal" 
>
<text fill="#212121" fill-opacity="1" stroke="none" xml:space="preserve" x="0" y="0" font-family="Helvetica" font-size="12" font-weight="400" font-style="normal" 
 >y</text>
</g>

<g fill="#212121" fill-opacity="1" stroke="#212121" stroke-opacity="1" stroke-width="1" stroke-linecap="square" stroke-linejoin="bevel" transform="matrix(0.75,0,0,0.75,645.75,452.25)"
font-family="Helvetica" font-size="16" font-weight="400" font-style="normal" 
>
<text fill="#212121" fill-opacity="1" stroke="none" xml:space="preserve" x="0" y="0" font-family="Helvetica" font-size="16" font-weight="400" font-style="normal" 
 >q</text>
</g>

<g fill="#212121" fill-opacity="1" stroke="#212121" stroke-opacity="1" stroke-width="1" stroke-linecap="square" stroke-linejoin="bevel" transform="matrix(0.75,0,0,0.75,652.5,458.25)"
font-family="Helvetica" font-size="12" font-weight="400" font-style="normal" 
>
<text fill="#212121" fill-opacity="1" stroke="none" xml:space="preserve" x="0" y="0" font-family="Helvetica" font-size="12" font-weight="400" font-style="normal" 
 >z</text>
</g>

<g fill="#212121" fill-opacity="1" stroke="#212121" stroke-opacity="1" stroke-width="1" stroke-linecap="square" stroke-linejoin="bevel" transform="matrix(0,-0.75,0.75,0,77.35,271.875)"
font-family="Helvetica" font-size="17" font-weight="700" font-style="normal" 
>
<text fill="#212121" fill-opacity="1" stroke="none" xml:space="preserve" x="0" y="0" font-family="Helvetica" font-size="17" font-weight="700" font-style="normal" 
 >Value</text>
</g>

<g fill="#212121" fill-opacity="1" stroke="#212121" stroke-opacity="1" stroke-width="0.666667" stroke-linecap="square" stroke-linejoin="round" transform="matrix(0.75,0,0,0.75,0,0)"
font-family="Helvetica" font-size="17" font-weight="700" font-style="normal" 
>
<polyline fill="none" vector-effect="none" points="140,582 140,100 " />
<polyline fill="none" vector-effect="none" points="972,582 972,100 " />
<polyline fill="none" vector-effect="none" points="140,521.366 148.32,521.366 " />
<polyline fill="none" vector-effect="none" points="963.68,521.366 972,521.366 " />
<polyline fill="none" vector-effect="none" points="140,439.829 148.32,439.829 " />
<polyline fill="none" vector-effect="none" points="963.68,439.829 972,439.829 " />
<polyline fill="none" vector-effect="none" points="140,358.291 148.32,358.291 " />
<polyline fill="none" vector-effect="none" points="963.68,358.291 972,358.291 " />
<polyline fill="none" vector-effect="none" points="140,276.754 148.32,276.754 " />
<polyline fill="none" vector-effect="none" points="963.68,276.754 972,276.754 " />
<polyline fill="none" vector-effect="none" points="140,195.217 148.32,195.217 " />
<polyline fill="none" vector-effect="none" points="963.68,195.217 972,195.217 " />
<polyline fill="none" vector-effect="none" points="140,113.679 148.32,113.679 " />
<polyline fill="none" vector-effect="none" points="963.68,113.679 972,113.679 " />
</g>

<g fill="#212121" fill-opacity="1" stroke="#212121" stroke-opacity="1" stroke-width="1" stroke-linecap="square" stroke-linejoin="bevel" transform="matrix(0.75,0,0,0.75,93.85,395.15)"
font-family="Helvetica" font-size="16" font-weight="400" font-style="normal" 
>
<text fill="#212121" fill-opacity="1" stroke="none" xml:space="preserve" x="0" y="0" font-family="Helvetica" font-size="16" font-weight="400" font-style="normal" 
 >0</text>
</g>

<g fill="#212121" fill-opacity="1" stroke="#212121" stroke-opacity="1" stroke-width="1" stroke-linecap="square" stroke-linejoin="bevel" transform="matrix(0.75,0,0,0.75,84.1,333.997)"
font-family="Helvetica" font-size="16" font-weight="400" font-style="normal" 
>
<text fill="#212121" fill-opacity="1" stroke="none" xml:space="preserve" x="0" y="0" font-family="Helvetica" font-size="16" font-weight="400" font-style="normal" 
 >0.2</text>
</g>

<g fill="#212121" fill-opacity="1" stroke="#212121" stroke-opacity="1" stroke-width="1" stroke-linecap="square" stroke-linejoin="bevel" transform="matrix(0.75,0,0,0.75,84.1,272.844)"
font-family="Helvetica" font-size="16" font-weight="400" font-style="normal" 
>
<text fill="#212121" fill-opacity="1" stroke="none" xml:space="preserve" x="0" y="0" font-family="Helvetica" font-size="16" font-weight="400" font-style="normal" 
 >0.4</text>
</g>

<g fill="#212121" fill-opacity="1" stroke="#212121" stroke-opacity="1" stroke-width="1" stroke-linecap="square" stroke-linejoin="bevel" transform="matrix(0.75,0,0,0.75,84.1,211.691)"
font-family="Helvetica" font-size="16" font-weight="400" font-style="normal" 
>
<text fill="#212121" fill-opacity="1" stroke="none" xml:space="preserve" x="0" y="0" font-family="Helvetica" font-size="16" font-weight="400" font-style="normal" 
 >0.6</text>
</g>

<g fill="#212121" fill-opacity="1" stroke="#212121" stroke-opacity="1" stroke-width="1" stroke-linecap="square" stroke-linejoin="bevel" transform="matrix(0.75,0,0,0.75,84.1,150.538)"
font-family="Helvetica" font-size="16" font-weight="400" font-style="normal" 
>
<text fill="#212121" fill-opacity="1" stroke="none" xml:space="preserve" x="0" y="0" font-family="Helvetica" font-size="16" font-weight="400" font-style="normal" 
 >0.8</text>
</g>

<g fill="#212121" fill-opacity="1" stroke="#212121" stroke-opacity="1" stroke-width="1" stroke-linecap="square" stroke-linejoin="bevel" transform="matrix(0.75,0,0,0.75,93.85,89.3845)"
font-family="Helvetica" font-size="16" font-weight="400" font-style="normal" 
>
<text fill="#212121" fill-opacity="1" stroke="none" xml:space="preserve" x="0" y="0" font-family="Helvetica" font-size="16" font-weight="400" font-style="normal" 
 >1</text>
</g>

<g fill="#ffffff" fill-opacity="1" stroke="none" transform="matrix(7.5e-05,0,0,7.5e-05,0,0)"
font-family="Helvetica" font-size="16" font-weight="400" font-style="normal" 
>
<path vector-effect="none" fill-rule="evenodd" d="M4.09e+06,440000 L4.09e+06,650000 L7.03e+06,650000 L7.03e+06,440000 L4.09e+06,440000"/>
</g>

<g fill="#33b333" fill-opacity="1" stroke="none" transform="matrix(7.5e-05,0,0,7.5e-05,0,0)"
font-family="Helvetica" font-size="16" font-weight="400" font-style="normal" 
>
<path vector-effect="none" fill-rule="evenodd" d="M4.13e+06,481250 L4.13e+06,608750 L4.53e+06,608750 L4.53e+06,481250 L4.13e+06,481250"/>
</g>

<g fill="none" stroke="#000000" stroke-opacity="1" stroke-width="1.6" stroke-linecap="butt" stroke-linejoin="miter" stroke-miterlimit="5" transform="matrix(0.75,0,0,0.75,0,0)"
font-family="Helvetica" font-size="16" font-weight="400" font-style="normal" 
>
<path vector-effect="none" fill-rule="evenodd" d="M413,60.875 L413,48.125 L453,48.125 L453,60.875 L413,60.875"/>
</g>

<g fill="#3380e6" fill-opacity="1" stroke="none" transform="matrix(7.5e-05,0,0,7.5e-05,0,0)"
font-family="Helvetica" font-size="16" font-weight="400" font-style="normal" 
>
<path vector-effect="none" fill-rule="evenodd" d="M4.97e+06,481250 L4.97e+06,608750 L5.37e+06,608750 L5.37e+06,481250 L4.97e+06,481250"/>
</g>

<g fill="none" stroke="#000000" stroke-opacity="1" stroke-width="1.6" stroke-linecap="butt" stroke-linejoin="miter" stroke-miterlimit="5" transform="matrix(0.75,0,0,0.75,0,0)"
font-family="Helvetica" font-size="16" font-weight="400" font-style="normal" 
>
<path vector-effect="none" fill-rule="evenodd" d="M497,60.875 L497,48.125 L537,48.125 L537,60.875 L497,60.875"/>
</g>

<g fill="#e64d33" fill-opacity="1" stroke="none" transform="matrix(7.5e-05,0,0,7.5e-05,0,0)"
font-family="Helvetica" font-size="16" font-weight="400" font-style="normal" 
>
<path vector-effect="none" fill-rule="evenodd" d="M6.2e+06,481250 L6.2e+06,608750 L6.6e+06,608750 L6.6e+06,481250 L6.2e+06,481250"/>
</g>

<g fill="none" stroke="#000000" stroke-opacity="1" stroke-width="1.6" stroke-linecap="butt" stroke-linejoin="miter" stroke-miterlimit="5" transform="matrix(0.75,0,0,0.75,0,0)"
font-family="Helvetica" font-size="16" font-weight="400" font-style="normal" 
>
<path vector-effect="none" fill-rule="evenodd" d="M620,60.875 L620,48.125 L660,48.125 L660,60.875 L620,60.875"/>
</g>

<g fill="#212121" fill-opacity="1" stroke="#212121" stroke-opacity="1" stroke-width="1" stroke-linecap="square" stroke-linejoin="bevel" transform="matrix(0.75,0,0,0.75,342,45)"
font-family="Helvetica" font-size="16" font-weight="400" font-style="normal" 
>
<text fill="#212121" fill-opacity="1" stroke="none" xml:space="preserve" x="0" y="0" font-family="Helvetica" font-size="16" font-weight="400" font-style="normal" 
 >True</text>
</g>

<g fill="#212121" fill-opacity="1" stroke="#212121" stroke-opacity="1" stroke-width="1" stroke-linecap="square" stroke-linejoin="bevel" transform="matrix(0.75,0,0,0.75,405,45)"
font-family="Helvetica" font-size="16" font-weight="400" font-style="normal" 
>
<text fill="#212121" fill-opacity="1" stroke="none" xml:space="preserve" x="0" y="0" font-family="Helvetica" font-size="16" font-weight="400" font-style="normal" 
 >Estimated</text>
</g>

<g fill="#212121" fill-opacity="1" stroke="#212121" stroke-opacity="1" stroke-width="1" stroke-linecap="square" stroke-linejoin="bevel" transform="matrix(0.75,0,0,0.75,497.25,45)"
font-family="Helvetica" font-size="16" font-weight="400" font-style="normal" 
>
<text fill="#212121" fill-opacity="1" stroke="none" xml:space="preserve" x="0" y="0" font-family="Helvetica" font-size="16" font-weight="400" font-style="normal" 
 >Error</text>
</g>

<g fill="none" stroke="#212121" stroke-opacity="1" stroke-width="0.666667" stroke-linecap="butt" stroke-linejoin="miter" stroke-miterlimit="5" transform="matrix(0.75,0,0,0.75,0,0)"
font-family="Helvetica" font-size="16" font-weight="400" font-style="normal" 
>
<path vector-effect="none" fill-rule="evenodd" d="M409,65 L409,44 L703,44 L703,65 L409,65"/>
</g>
</g>
</svg>
