<?xml version="1.0" encoding="UTF-8" standalone="no"?>
<svg width="284.339mm" height="171.45mm"
 viewBox="0 0 806 486"
 xmlns="http://www.w3.org/2000/svg" xmlns:xlink="http://www.w3.org/1999/xlink"  version="1.2" baseProfile="tiny">
<title>Qt SVG Document</title>
<desc>MATLAB, The MathWorks, Inc. Version 25.2.0.3123386 R2025b Update 3</desc>
<defs>
</defs>
<g fill="none" stroke="black" stroke-width="1" fill-rule="evenodd" stroke-linecap="square" stroke-linejoin="bevel" >

<g fill="#ffffff" fill-opacity="1" stroke="none" transform="matrix(0.75,0,0,0.75,0,0)"
font-family="MS Shell Dlg 2" font-size="8.25" font-weight="400" font-style="normal" 
>
<path vector-effect="none" fill-rule="evenodd" d="M0,0 L1075,0 L1075,648 L0,648 L0,0"/>
</g>

<g fill="#ffffff" fill-opacity="1" stroke="none" transform="matrix(7.5e-05,0,0,7.5e-05,0,0)"
font-family="MS Shell Dlg 2" font-size="8.25" font-weight="400" font-style="normal" 
>
<path vector-effect="none" fill-rule="evenodd" d="M1.4e+06,490000 L1.4e+06,5.76e+06 L9.72e+06,5.76e+06 L9.72e+06,490000 L1.4e+06,490000"/>
</g>

<g fill="#212121" fill-opacity="0.14902" stroke="#212121" stroke-opacity="0.14902" stroke-width="0.666667" stroke-linecap="butt" stroke-linejoin="round" transform="matrix(0.75,0,0,0.75,0,0)"
font-family="MS Shell Dlg 2" font-size="8.25" font-weight="400" font-style="normal" 
>
<polyline fill="none" vector-effect="none" points="177.818,49 177.818,576 " />
<polyline fill="none" vector-effect="none" points="265.057,49 265.057,576 " />
<polyline fill="none" vector-effect="none" points="352.297,49 352.297,576 " />
<polyline fill="none" vector-effect="none" points="439.536,49 439.536,576 " />
<polyline fill="none" vector-effect="none" points="526.775,49 526.775,576 " />
<polyline fill="none" vector-effect="none" points="614.014,49 614.014,576 " />
<polyline fill="none" vector-effect="none" points="701.253,49 701.253,576 " />
<polyline fill="none" vector-effect="none" points="788.492,49 788.492,576 " />
<polyline fill="none" vector-effect="none" points="875.732,49 875.732,576 " />
<polyline fill="none" vector-effect="none" points="962.971,49 962.971,576 " />
<polyline fill="none" vector-effect="none" points="140,576 972,576 " />
<polyline fill="none" vector-effect="none" points="140,510.125 972,510.125 " />
<polyline fill="none" vector-effect="none" points="140,444.25 972,444.25 " />
<polyline fill="none" vector-effect="none" points="140,378.375 972,378.375 " />
<polyline fill="none" vector-effect="none" points="140,312.5 972,312.5 " />
<polyline fill="none" vector-effect="none" points="140,246.625 972,246.625 " />
<polyline fill="none" vector-effect="none" points="140,180.75 972,180.75 " />
<polyline fill="none" vector-effect="none" points="140,114.875 972,114.875 " />
<polyline fill="none" vector-effect="none" points="140,49 972,49 " />
</g>

<g fill="#212121" fill-opacity="1" stroke="#212121" stroke-opacity="1" stroke-width="1" stroke-linecap="square" stroke-linejoin="bevel" transform="matrix(0.75,0,0,0.75,268.5,31.4812)"
font-family="Helvetica" font-size="16" font-weight="700" font-style="normal" 
>
<text fill="#212121" fill-opacity="1" stroke="none" xml:space="preserve" x="0" y="0" font-family="Helvetica" font-size="16" font-weight="700" font-style="normal" 
 >Residual Distribution | </text>
</g>

<g fill="#212121" fill-opacity="1" stroke="#212121" stroke-opacity="1" stroke-width="1" stroke-linecap="square" stroke-linejoin="bevel" transform="matrix(0.75,0,0,0.75,268.5,31.4812)"
font-family="Helvetica" font-size="16" font-weight="700" font-style="normal" 
>
<text fill="#212121" fill-opacity="1" stroke="none" xml:space="preserve" x="172" y="0" font-family="Helvetica" font-size="16" font-weight="700" font-style="normal" 
 >μ = 2.4&quot;, σ = 1.8&quot; | </text>
</g>

<g fill="#212121" fill-opacity="1" stroke="#212121" stroke-opacity="1" stroke-width="1" stroke-linecap="square" stroke-linejoin="bevel" transform="matrix(0.75,0,0,0.75,268.5,31.4812)"
font-family="Helvetica" font-size="16" font-weight="700" font-style="normal" 
>
<text fill="#212121" fill-opacity="1" stroke="none" xml:space="preserve" x="307" y="0" font-family="Helvetica" font-size="16" font-weight="700" font-style="normal" 
 >N = 40 stars</text>
</g>

<g fill="#3399e6" fill-opacity="0.8" stroke="none" transform="matrix(7.5e-05,0,0,7.5e-05,0,0)"
font-family="Helvetica" font-size="16" font-weight="700" font-style="normal" 
>
<path vector-effect="none" fill-rule="evenodd" d="M1.77818e+06,3.125e+06 L1.77818e+06,5.76e+06 L2.0303e+06,5.76e+06 L2.0303e+06,3.125e+06 L1.77818e+06,3.125e+06"/>
</g>

<g fill="#3399e6" fill-opacity="0.8" stroke="none" transform="matrix(7.5e-05,0,0,7.5e-05,0,0)"
font-family="Helvetica" font-size="16" font-weight="700" font-style="normal" 
>
<path vector-effect="none" fill-rule="evenodd" d="M2.0303e+06,1.8075e+06 L2.0303e+06,5.76e+06 L2.28242e+06,5.76e+06 L2.53455e+06,5.76e+06 L2.53455e+06,1.8075e+06 L2.28242e+06,1.8075e+06 L2.0303e+06,1.8075e+06"/>
</g>

<g fill="#3399e6" fill-opacity="0.8" stroke="none" transform="matrix(7.5e-05,0,0,7.5e-05,0,0)"
font-family="Helvetica" font-size="16" font-weight="700" font-style="normal" 
>
<path vector-effect="none" fill-rule="evenodd" d="M2.53455e+06,4.4425e+06 L2.53455e+06,5.76e+06 L2.78667e+06,5.76e+06 L2.78667e+06,4.4425e+06 L2.53455e+06,4.4425e+06"/>
</g>

<g fill="#3399e6" fill-opacity="0.8" stroke="none" transform="matrix(7.5e-05,0,0,7.5e-05,0,0)"
font-family="Helvetica" font-size="16" font-weight="700" font-style="normal" 
>
<path vector-effect="none" fill-rule="evenodd" d="M2.78667e+06,1.8075e+06 L2.78667e+06,5.76e+06 L3.03879e+06,5.76e+06 L3.29091e+06,5.76e+06 L3.29091e+06,1.8075e+06 L3.03879e+06,1.8075e+06 L2.78667e+06,1.8075e+06"/>
</g>

<g fill="#3399e6" fill-opacity="0.8" stroke="none" transform="matrix(7.5e-05,0,0,7.5e-05,0,0)"
font-family="Helvetica" font-size="16" font-weight="700" font-style="normal" 
>
<path vector-effect="none" fill-rule="evenodd" d="M3.29091e+06,490000 L3.29091e+06,5.76e+06 L3.54303e+06,5.76e+06 L3.79515e+06,5.76e+06 L3.79515e+06,490000 L3.54303e+06,490000 L3.29091e+06,490000"/>
</g>

<g fill="#3399e6" fill-opacity="0.8" stroke="none" transform="matrix(7.5e-05,0,0,7.5e-05,0,0)"
font-family="Helvetica" font-size="16" font-weight="700" font-style="normal" 
>
<path vector-effect="none" fill-rule="evenodd" d="M3.79515e+06,1.8075e+06 L3.79515e+06,5.76e+06 L4.04727e+06,5.76e+06 L4.04727e+06,1.8075e+06 L3.79515e+06,1.8075e+06"/>
</g>

<g fill="#3399e6" fill-opacity="0.8" stroke="none" transform="matrix(7.5e-05,0,0,7.5e-05,0,0)"
font-family="Helvetica" font-size="16" font-weight="700" font-style="normal" 
>
<path vector-effect="none" fill-rule="evenodd" d="M4.04727e+06,3.125e+06 L4.04727e+06,5.76e+06 L4.29939e+06,5.76e+06 L4.55152e+06,5.76e+06 L4.55152e+06,3.125e+06 L4.29939e+06,3.125e+06 L4.04727e+06,3.125e+06"/>
</g>

<g fill="#3399e6" fill-opacity="0.8" stroke="none" transform="matrix(7.5e-05,0,0,7.5e-05,0,0)"
font-family="Helvetica" font-size="16" font-weight="700" font-style="normal" 
>
<path vector-effect="none" fill-rule="evenodd" d="M4.55152e+06,1.8075e+06 L4.55152e+06,5.76e+06 L4.80364e+06,5.76e+06 L4.80364e+06,1.8075e+06 L4.55152e+06,1.8075e+06"/>
</g>

<g fill="#3399e6" fill-opacity="0.8" stroke="none" transform="matrix(7.5e-05,0,0,7.5e-05,0,0)"
font-family="Helvetica" font-size="16" font-weight="700" font-style="normal" 
>
<path vector-effect="none" fill-rule="evenodd" d="M5.05576e+06,1.8075e+06 L5.05576e+06,5.76e+06 L5.30788e+06,5.76e+06 L5.30788e+06,1.8075e+06 L5.05576e+06,1.8075e+06"/>
</g>

<g fill="#3399e6" fill-opacity="0.8" stroke="none" transform="matrix(7.5e-05,0,0,7.5e-05,0,0)"
font-family="Helvetica" font-size="16" font-weight="700" font-style="normal" 
>
<path vector-effect="none" fill-rule="evenodd" d="M5.30788e+06,4.4425e+06 L5.30788e+06,5.76e+06 L5.56e+06,5.76e+06 L5.56e+06,4.4425e+06 L5.30788e+06,4.4425e+06"/>
</g>

<g fill="#3399e6" fill-opacity="0.8" stroke="none" transform="matrix(7.5e-05,0,0,7.5e-05,0,0)"
font-family="Helvetica" font-size="16" font-weight="700" font-style="normal" 
>
<path vector-effect="none" fill-rule="evenodd" d="M6.82061e+06,4.4425e+06 L6.82061e+06,5.76e+06 L7.07273e+06,5.76e+06 L7.07273e+06,4.4425e+06 L6.82061e+06,4.4425e+06"/>
</g>

<g fill="#3399e6" fill-opacity="0.8" stroke="none" transform="matrix(7.5e-05,0,0,7.5e-05,0,0)"
font-family="Helvetica" font-size="16" font-weight="700" font-style="normal" 
>
<path vector-effect="none" fill-rule="evenodd" d="M8.08121e+06,4.4425e+06 L8.08121e+06,5.76e+06 L8.33333e+06,5.76e+06 L8.33333e+06,4.4425e+06 L8.08121e+06,4.4425e+06"/>
</g>

<g fill="#3399e6" fill-opacity="0.8" stroke="none" transform="matrix(7.5e-05,0,0,7.5e-05,0,0)"
font-family="Helvetica" font-size="16" font-weight="700" font-style="normal" 
>
<path vector-effect="none" fill-rule="evenodd" d="M9.0897e+06,4.4425e+06 L9.0897e+06,5.76e+06 L9.34182e+06,5.76e+06 L9.34182e+06,4.4425e+06 L9.0897e+06,4.4425e+06"/>
</g>

<g fill="none" stroke="#1a4d80" stroke-opacity="1" stroke-width="1.6" stroke-linecap="square" stroke-linejoin="miter" stroke-miterlimit="5" transform="matrix(0.75,0,0,0.75,0,0)"
font-family="Helvetica" font-size="16" font-weight="700" font-style="normal" 
>
<polyline fill="none" vector-effect="none" points="177.818,576 177.818,312.5 203.03,312.5 " />
<polyline fill="none" vector-effect="none" points="203.03,576 203.03,576 203.03,180.75 228.242,180.75 228.242,576 228.242,576 " />
<polyline fill="none" vector-effect="none" points="228.242,180.75 253.455,180.75 253.455,576 253.455,576 " />
</g>

<g fill="#1a4d80" fill-opacity="1" stroke="#1a4d80" stroke-opacity="1" stroke-width="1.6" stroke-linecap="square" stroke-linejoin="miter" stroke-miterlimit="5" transform="matrix(0.75,0,0,0.75,0,0)"
font-family="Helvetica" font-size="16" font-weight="700" font-style="normal" 
>
<polyline fill="none" vector-effect="none" points="253.455,444.25 278.667,444.25 " />
</g>

<g fill="none" stroke="#1a4d80" stroke-opacity="1" stroke-width="1.6" stroke-linecap="square" stroke-linejoin="miter" stroke-miterlimit="5" transform="matrix(0.75,0,0,0.75,0,0)"
font-family="Helvetica" font-size="16" font-weight="700" font-style="normal" 
>
<polyline fill="none" vector-effect="none" points="278.667,576 278.667,576 278.667,180.75 303.879,180.75 303.879,576 303.879,576 " />
</g>

<g fill="#1a4d80" fill-opacity="1" stroke="#1a4d80" stroke-opacity="1" stroke-width="1.6" stroke-linecap="square" stroke-linejoin="miter" stroke-miterlimit="5" transform="matrix(0.75,0,0,0.75,0,0)"
font-family="Helvetica" font-size="16" font-weight="700" font-style="normal" 
>
<polyline fill="none" vector-effect="none" points="303.879,180.75 329.091,180.75 " />
</g>

<g fill="none" stroke="#1a4d80" stroke-opacity="1" stroke-width="1.6" stroke-linecap="square" stroke-linejoin="miter" stroke-miterlimit="5" transform="matrix(0.75,0,0,0.75,0,0)"
font-family="Helvetica" font-size="16" font-weight="700" font-style="normal" 
>
<polyline fill="none" vector-effect="none" points="329.091,576 329.091,576 329.091,49 354.303,49 354.303,576 354.303,576 " />
<polyline fill="none" vector-effect="none" points="354.303,49 379.515,49 379.515,576 379.515,576 " />
<polyline fill="none" vector-effect="none" points="379.515,180.75 404.727,180.75 404.727,576 404.727,576 " />
<polyline fill="none" vector-effect="none" points="404.727,312.5 429.939,312.5 429.939,576 429.939,576 " />
</g>

<g fill="#1a4d80" fill-opacity="1" stroke="#1a4d80" stroke-opacity="1" stroke-width="1.6" stroke-linecap="square" stroke-linejoin="miter" stroke-miterlimit="5" transform="matrix(0.75,0,0,0.75,0,0)"
font-family="Helvetica" font-size="16" font-weight="700" font-style="normal" 
>
<polyline fill="none" vector-effect="none" points="429.939,312.5 455.152,312.5 " />
</g>

<g fill="none" stroke="#1a4d80" stroke-opacity="1" stroke-width="1.6" stroke-linecap="square" stroke-linejoin="miter" stroke-miterlimit="5" transform="matrix(0.75,0,0,0.75,0,0)"
font-family="Helvetica" font-size="16" font-weight="700" font-style="normal" 
>
<polyline fill="none" vector-effect="none" points="455.152,576 455.152,576 455.152,180.75 480.364,180.75 480.364,576 480.364,576 " />
</g>

<g fill="#1a4d80" fill-opacity="1" stroke="#1a4d80" stroke-opacity="1" stroke-width="1.6" stroke-linecap="square" stroke-linejoin="miter" stroke-miterlimit="5" transform="matrix(0.75,0,0,0.75,0,0)"
font-family="Helvetica" font-size="16" font-weight="700" font-style="normal" 
>
<polyline fill="none" vector-effect="none" points="480.364,576 505.576,576 " />
</g>

<g fill="none" stroke="#1a4d80" stroke-opacity="1" stroke-width="1.6" stroke-linecap="square" stroke-linejoin="miter" stroke-miterlimit="5" transform="matrix(0.75,0,0,0.75,0,0)"
font-family="Helvetica" font-size="16" font-weight="700" font-style="normal" 
>
<polyline fill="none" vector-effect="none" points="505.576,576 505.576,576 505.576,180.75 530.788,180.75 530.788,576 530.788,576 " />
<polyline fill="none" vector-effect="none" points="530.788,444.25 556,444.25 556,576 556,576 " />
<polyline fill="none" vector-effect="none" points="556,576 581.212,576 581.212,576 581.212,576 " />
<polyline fill="none" vector-effect="none" points="581.212,576 606.424,576 606.424,576 606.424,576 " />
<polyline fill="none" vector-effect="none" points="606.424,576 631.636,576 631.636,576 631.636,576 " />
<polyline fill="none" vector-effect="none" points="631.636,576 656.849,576 656.849,576 656.849,576 " />
</g>

<g fill="#1a4d80" fill-opacity="1" stroke="#1a4d80" stroke-opacity="1" stroke-width="1.6" stroke-linecap="square" stroke-linejoin="miter" stroke-miterlimit="5" transform="matrix(0.75,0,0,0.75,0,0)"
font-family="Helvetica" font-size="16" font-weight="700" font-style="normal" 
>
<polyline fill="none" vector-effect="none" points="656.849,576 682.061,576 " />
</g>

<g fill="none" stroke="#1a4d80" stroke-opacity="1" stroke-width="1.6" stroke-linecap="square" stroke-linejoin="miter" stroke-miterlimit="5" transform="matrix(0.75,0,0,0.75,0,0)"
font-family="Helvetica" font-size="16" font-weight="700" font-style="normal" 
>
<polyline fill="none" vector-effect="none" points="682.061,576 682.061,576 682.061,444.25 707.273,444.25 707.273,576 707.273,576 " />
<polyline fill="none" vector-effect="none" points="707.273,576 732.485,576 732.485,576 732.485,576 " />
<polyline fill="none" vector-effect="none" points="732.485,576 757.697,576 757.697,576 757.697,576 " />
<polyline fill="none" vector-effect="none" points="757.697,576 782.909,576 782.909,576 782.909,576 " />
</g>

<g fill="#1a4d80" fill-opacity="1" stroke="#1a4d80" stroke-opacity="1" stroke-width="1.6" stroke-linecap="square" stroke-linejoin="miter" stroke-miterlimit="5" transform="matrix(0.75,0,0,0.75,0,0)"
font-family="Helvetica" font-size="16" font-weight="700" font-style="normal" 
>
<polyline fill="none" vector-effect="none" points="782.909,576 808.121,576 " />
</g>

<g fill="none" stroke="#1a4d80" stroke-opacity="1" stroke-width="1.6" stroke-linecap="square" stroke-linejoin="miter" stroke-miterlimit="5" transform="matrix(0.75,0,0,0.75,0,0)"
font-family="Helvetica" font-size="16" font-weight="700" font-style="normal" 
>
<polyline fill="none" vector-effect="none" points="808.121,576 808.121,576 808.121,444.25 833.333,444.25 833.333,576 833.333,576 " />
<polyline fill="none" vector-effect="none" points="833.333,576 858.545,576 858.545,576 858.545,576 " />
<polyline fill="none" vector-effect="none" points="858.545,576 883.758,576 883.758,576 883.758,576 " />
</g>

<g fill="#1a4d80" fill-opacity="1" stroke="#1a4d80" stroke-opacity="1" stroke-width="1.6" stroke-linecap="square" stroke-linejoin="miter" stroke-miterlimit="5" transform="matrix(0.75,0,0,0.75,0,0)"
font-family="Helvetica" font-size="16" font-weight="700" font-style="normal" 
>
<polyline fill="none" vector-effect="none" points="883.758,576 908.97,576 " />
</g>

<g fill="none" stroke="#1a4d80" stroke-opacity="1" stroke-width="1.6" stroke-linecap="square" stroke-linejoin="miter" stroke-miterlimit="5" transform="matrix(0.75,0,0,0.75,0,0)"
font-family="Helvetica" font-size="16" font-weight="700" font-style="normal" 
>
<polyline fill="none" vector-effect="none" points="908.97,576 908.97,576 908.97,444.25 934.182,444.25 934.182,576 " />
</g>

<g fill="#212121" fill-opacity="1" stroke="#212121" stroke-opacity="1" stroke-width="1" stroke-linecap="square" stroke-linejoin="bevel" transform="matrix(0.75,0,0,0.75,367.5,460.45)"
font-family="Helvetica" font-size="16" font-weight="700" font-style="normal" 
>
<text fill="#212121" fill-opacity="1" stroke="none" xml:space="preserve" x="0" y="0" font-family="Helvetica" font-size="16" font-weight="700" font-style="normal" 
 >Residual [arcsec]</text>
</g>

<g fill="#212121" fill-opacity="1" stroke="#212121" stroke-opacity="1" stroke-width="0.666667" stroke-linecap="square" stroke-linejoin="round" transform="matrix(0.75,0,0,0.75,0,0)"
font-family="Helvetica" font-size="16" font-weight="700" font-style="normal" 
>
<polyline fill="none" vector-effect="none" points="140,576 972,576 " />
<polyline fill="none" vector-effect="none" points="140,49 972,49 " />
<polyline fill="none" vector-effect="none" points="177.818,576 177.818,567.68 " />
<polyline fill="none" vector-effect="none" points="177.818,57.32 177.818,49 " />
<polyline fill="none" vector-effect="none" points="265.057,576 265.057,567.68 " />
<polyline fill="none" vector-effect="none" points="265.057,57.32 265.057,49 " />
<polyline fill="none" vector-effect="none" points="352.297,576 352.297,567.68 " />
<polyline fill="none" vector-effect="none" points="352.297,57.32 352.297,49 " />
<polyline fill="none" vector-effect="none" points="439.536,576 439.536,567.68 " />
<polyline fill="none" vector-effect="none" points="439.536,57.32 439.536,49 " />
<polyline fill="none" vector-effect="none" points="526.775,576 526.775,567.68 " />
<polyline fill="none" vector-effect="none" points="526.775,57.32 526.775,49 " />
<polyline fill="none" vector-effect="none" points="614.014,576 614.014,567.68 " />
<polyline fill="none" vector-effect="none" points="614.014,57.32 614.014,49 " />
<polyline fill="none" vector-effect="none" points="701.253,576 701.253,567.68 " />
<polyline fill="none" vector-effect="none" points="701.253,57.32 701.253,49 " />
<polyline fill="none" vector-effect="none" points="788.492,576 788.492,567.68 " />
<polyline fill="none" vector-effect="none" points="788.492,57.32 788.492,49 " />
<polyline fill="none" vector-effect="none" points="875.732,576 875.732,567.68 " />
<polyline fill="none" vector-effect="none" points="875.732,57.32 875.732,49 " />
<polyline fill="none" vector-effect="none" points="962.971,576 962.971,567.68 " />
<polyline fill="none" vector-effect="none" points="962.971,57.32 962.971,49 " />
</g>

<g fill="#212121" fill-opacity="1" stroke="#212121" stroke-opacity="1" stroke-width="1" stroke-linecap="square" stroke-linejoin="bevel" transform="matrix(0.75,0,0,0.75,130.364,445.95)"
font-family="Helvetica" font-size="14" font-weight="400" font-style="normal" 
>
<text fill="#212121" fill-opacity="1" stroke="none" xml:space="preserve" x="0" y="0" font-family="Helvetica" font-size="14" font-weight="400" font-style="normal" 
 >0</text>
</g>

<g fill="#212121" fill-opacity="1" stroke="#212121" stroke-opacity="1" stroke-width="1" stroke-linecap="square" stroke-linejoin="bevel" transform="matrix(0.75,0,0,0.75,195.793,445.95)"
font-family="Helvetica" font-size="14" font-weight="400" font-style="normal" 
>
<text fill="#212121" fill-opacity="1" stroke="none" xml:space="preserve" x="0" y="0" font-family="Helvetica" font-size="14" font-weight="400" font-style="normal" 
 >1</text>
</g>

<g fill="#212121" fill-opacity="1" stroke="#212121" stroke-opacity="1" stroke-width="1" stroke-linecap="square" stroke-linejoin="bevel" transform="matrix(0.75,0,0,0.75,261.222,445.95)"
font-family="Helvetica" font-size="14" font-weight="400" font-style="normal" 
>
<text fill="#212121" fill-opacity="1" stroke="none" xml:space="preserve" x="0" y="0" font-family="Helvetica" font-size="14" font-weight="400" font-style="normal" 
 >2</text>
</g>

<g fill="#212121" fill-opacity="1" stroke="#212121" stroke-opacity="1" stroke-width="1" stroke-linecap="square" stroke-linejoin="bevel" transform="matrix(0.75,0,0,0.75,326.652,445.95)"
font-family="Helvetica" font-size="14" font-weight="400" font-style="normal" 
>
<text fill="#212121" fill-opacity="1" stroke="none" xml:space="preserve" x="0" y="0" font-family="Helvetica" font-size="14" font-weight="400" font-style="normal" 
 >3</text>
</g>

<g fill="#212121" fill-opacity="1" stroke="#212121" stroke-opacity="1" stroke-width="1" stroke-linecap="square" stroke-linejoin="bevel" transform="matrix(0.75,0,0,0.75,392.081,445.95)"
font-family="Helvetica" font-size="14" font-weight="400" font-style="normal" 
>
<text fill="#212121" fill-opacity="1" stroke="none" xml:space="preserve" x="0" y="0" font-family="Helvetica" font-size="14" font-weight="400" font-style="normal" 
 >4</text>
</g>

<g fill="#212121" fill-opacity="1" stroke="#212121" stroke-opacity="1" stroke-width="1" stroke-linecap="square" stroke-linejoin="bevel" transform="matrix(0.75,0,0,0.75,457.511,445.95)"
font-family="Helvetica" font-size="14" font-weight="400" font-style="normal" 
>
<text fill="#212121" fill-opacity="1" stroke="none" xml:space="preserve" x="0" y="0" font-family="Helvetica" font-size="14" font-weight="400" font-style="normal" 
 >5</text>
</g>

<g fill="#212121" fill-opacity="1" stroke="#212121" stroke-opacity="1" stroke-width="1" stroke-linecap="square" stroke-linejoin="bevel" transform="matrix(0.75,0,0,0.75,522.94,445.95)"
font-family="Helvetica" font-size="14" font-weight="400" font-style="normal" 
>
<text fill="#212121" fill-opacity="1" stroke="none" xml:space="preserve" x="0" y="0" font-family="Helvetica" font-size="14" font-weight="400" font-style="normal" 
 >6</text>
</g>

<g fill="#212121" fill-opacity="1" stroke="#212121" stroke-opacity="1" stroke-width="1" stroke-linecap="square" stroke-linejoin="bevel" transform="matrix(0.75,0,0,0.75,588.369,445.95)"
font-family="Helvetica" font-size="14" font-weight="400" font-style="normal" 
>
<text fill="#212121" fill-opacity="1" stroke="none" xml:space="preserve" x="0" y="0" font-family="Helvetica" font-size="14" font-weight="400" font-style="normal" 
 >7</text>
</g>

<g fill="#212121" fill-opacity="1" stroke="#212121" stroke-opacity="1" stroke-width="1" stroke-linecap="square" stroke-linejoin="bevel" transform="matrix(0.75,0,0,0.75,653.799,445.95)"
font-family="Helvetica" font-size="14" font-weight="400" font-style="normal" 
>
<text fill="#212121" fill-opacity="1" stroke="none" xml:space="preserve" x="0" y="0" font-family="Helvetica" font-size="14" font-weight="400" font-style="normal" 
 >8</text>
</g>

<g fill="#212121" fill-opacity="1" stroke="#212121" stroke-opacity="1" stroke-width="1" stroke-linecap="square" stroke-linejoin="bevel" transform="matrix(0.75,0,0,0.75,719.228,445.95)"
font-family="Helvetica" font-size="14" font-weight="400" font-style="normal" 
>
<text fill="#212121" fill-opacity="1" stroke="none" xml:space="preserve" x="0" y="0" font-family="Helvetica" font-size="14" font-weight="400" font-style="normal" 
 >9</text>
</g>

<g fill="#212121" fill-opacity="1" stroke="#212121" stroke-opacity="1" stroke-width="1" stroke-linecap="square" stroke-linejoin="bevel" transform="matrix(0,-0.75,0.75,0,79.05,265.125)"
font-family="Helvetica" font-size="16" font-weight="700" font-style="normal" 
>
<text fill="#212121" fill-opacity="1" stroke="none" xml:space="preserve" x="0" y="0" font-family="Helvetica" font-size="16" font-weight="700" font-style="normal" 
 >Frequency</text>
</g>

<g fill="#212121" fill-opacity="1" stroke="#212121" stroke-opacity="1" stroke-width="0.666667" stroke-linecap="square" stroke-linejoin="round" transform="matrix(0.75,0,0,0.75,0,0)"
font-family="Helvetica" font-size="16" font-weight="700" font-style="normal" 
>
<polyline fill="none" vector-effect="none" points="140,576 140,49 " />
<polyline fill="none" vector-effect="none" points="972,576 972,49 " />
<polyline fill="none" vector-effect="none" points="140,576 148.32,576 " />
<polyline fill="none" vector-effect="none" points="963.68,576 972,576 " />
<polyline fill="none" vector-effect="none" points="140,510.125 148.32,510.125 " />
<polyline fill="none" vector-effect="none" points="963.68,510.125 972,510.125 " />
<polyline fill="none" vector-effect="none" points="140,444.25 148.32,444.25 " />
<polyline fill="none" vector-effect="none" points="963.68,444.25 972,444.25 " />
<polyline fill="none" vector-effect="none" points="140,378.375 148.32,378.375 " />
<polyline fill="none" vector-effect="none" points="963.68,378.375 972,378.375 " />
<polyline fill="none" vector-effect="none" points="140,312.5 148.32,312.5 " />
<polyline fill="none" vector-effect="none" points="963.68,312.5 972,312.5 " />
<polyline fill="none" vector-effect="none" points="140,246.625 148.32,246.625 " />
<polyline fill="none" vector-effect="none" points="963.68,246.625 972,246.625 " />
<polyline fill="none" vector-effect="none" points="140,180.75 148.32,180.75 " />
<polyline fill="none" vector-effect="none" points="963.68,180.75 972,180.75 " />
<polyline fill="none" vector-effect="none" points="140,114.875 148.32,114.875 " />
<polyline fill="none" vector-effect="none" points="963.68,114.875 972,114.875 " />
<polyline fill="none" vector-effect="none" points="140,49 148.32,49 " />
<polyline fill="none" vector-effect="none" points="963.68,49 972,49 " />
</g>

<g fill="#212121" fill-opacity="1" stroke="#212121" stroke-opacity="1" stroke-width="1" stroke-linecap="square" stroke-linejoin="bevel" transform="matrix(0.75,0,0,0.75,94.8,435.75)"
font-family="Helvetica" font-size="14" font-weight="400" font-style="normal" 
>
<text fill="#212121" fill-opacity="1" stroke="none" xml:space="preserve" x="0" y="0" font-family="Helvetica" font-size="14" font-weight="400" font-style="normal" 
 >0</text>
</g>

<g fill="#212121" fill-opacity="1" stroke="#212121" stroke-opacity="1" stroke-width="1" stroke-linecap="square" stroke-linejoin="bevel" transform="matrix(0.75,0,0,0.75,85.8,386.344)"
font-family="Helvetica" font-size="14" font-weight="400" font-style="normal" 
>
<text fill="#212121" fill-opacity="1" stroke="none" xml:space="preserve" x="0" y="0" font-family="Helvetica" font-size="14" font-weight="400" font-style="normal" 
 >0.5</text>
</g>

<g fill="#212121" fill-opacity="1" stroke="#212121" stroke-opacity="1" stroke-width="1" stroke-linecap="square" stroke-linejoin="bevel" transform="matrix(0.75,0,0,0.75,94.8,336.938)"
font-family="Helvetica" font-size="14" font-weight="400" font-style="normal" 
>
<text fill="#212121" fill-opacity="1" stroke="none" xml:space="preserve" x="0" y="0" font-family="Helvetica" font-size="14" font-weight="400" font-style="normal" 
 >1</text>
</g>

<g fill="#212121" fill-opacity="1" stroke="#212121" stroke-opacity="1" stroke-width="1" stroke-linecap="square" stroke-linejoin="bevel" transform="matrix(0.75,0,0,0.75,85.8,287.531)"
font-family="Helvetica" font-size="14" font-weight="400" font-style="normal" 
>
<text fill="#212121" fill-opacity="1" stroke="none" xml:space="preserve" x="0" y="0" font-family="Helvetica" font-size="14" font-weight="400" font-style="normal" 
 >1.5</text>
</g>

<g fill="#212121" fill-opacity="1" stroke="#212121" stroke-opacity="1" stroke-width="1" stroke-linecap="square" stroke-linejoin="bevel" transform="matrix(0.75,0,0,0.75,94.8,238.125)"
font-family="Helvetica" font-size="14" font-weight="400" font-style="normal" 
>
<text fill="#212121" fill-opacity="1" stroke="none" xml:space="preserve" x="0" y="0" font-family="Helvetica" font-size="14" font-weight="400" font-style="normal" 
 >2</text>
</g>

<g fill="#212121" fill-opacity="1" stroke="#212121" stroke-opacity="1" stroke-width="1" stroke-linecap="square" stroke-linejoin="bevel" transform="matrix(0.75,0,0,0.75,85.8,188.719)"
font-family="Helvetica" font-size="14" font-weight="400" font-style="normal" 
>
<text fill="#212121" fill-opacity="1" stroke="none" xml:space="preserve" x="0" y="0" font-family="Helvetica" font-size="14" font-weight="400" font-style="normal" 
 >2.5</text>
</g>

<g fill="#212121" fill-opacity="1" stroke="#212121" stroke-opacity="1" stroke-width="1" stroke-linecap="square" stroke-linejoin="bevel" transform="matrix(0.75,0,0,0.75,94.8,139.313)"
font-family="Helvetica" font-size="14" font-weight="400" font-style="normal" 
>
<text fill="#212121" fill-opacity="1" stroke="none" xml:space="preserve" x="0" y="0" font-family="Helvetica" font-size="14" font-weight="400" font-style="normal" 
 >3</text>
</g>

<g fill="#212121" fill-opacity="1" stroke="#212121" stroke-opacity="1" stroke-width="1" stroke-linecap="square" stroke-linejoin="bevel" transform="matrix(0.75,0,0,0.75,85.8,89.9063)"
font-family="Helvetica" font-size="14" font-weight="400" font-style="normal" 
>
<text fill="#212121" fill-opacity="1" stroke="none" xml:space="preserve" x="0" y="0" font-family="Helvetica" font-size="14" font-weight="400" font-style="normal" 
 >3.5</text>
</g>

<g fill="#212121" fill-opacity="1" stroke="#212121" stroke-opacity="1" stroke-width="1" stroke-linecap="square" stroke-linejoin="bevel" transform="matrix(0.75,0,0,0.75,94.8,40.5)"
font-family="Helvetica" font-size="14" font-weight="400" font-style="normal" 
>
<text fill="#212121" fill-opacity="1" stroke="none" xml:space="preserve" x="0" y="0" font-family="Helvetica" font-size="14" font-weight="400" font-style="normal" 
 >4</text>
</g>

<g fill="#ff0000" fill-opacity="0.701961" stroke="#ff0000" stroke-opacity="0.701961" stroke-width="4" stroke-linecap="butt" stroke-linejoin="round" transform="matrix(0.75,0,0,0.75,0,0)"
font-family="Helvetica" font-size="14" font-weight="400" font-style="normal" 
>
<polyline fill="none" vector-effect="none" points="387.644,576 387.644,49 " />
</g>

<g fill="#ff0000" fill-opacity="1" stroke="#ff0000" stroke-opacity="1" stroke-width="1" stroke-linecap="square" stroke-linejoin="bevel" transform="matrix(0,-0.75,0.75,0,285.858,77.25)"
font-family="Helvetica" font-size="14" font-weight="400" font-style="normal" 
>
<text fill="#ff0000" fill-opacity="1" stroke="none" xml:space="preserve" x="0" y="0" font-family="Helvetica" font-size="14" font-weight="400" font-style="normal" 
 >μ = 2.4&quot;</text>
</g>

<g fill="#ff0000" fill-opacity="0.701961" stroke="#ff0000" stroke-opacity="0.701961" stroke-dasharray="8,8" stroke-dashoffset="0" stroke-width="2.66667" stroke-linecap="butt" stroke-linejoin="round" transform="matrix(0.75,0,0,0.75,0,0)"
font-family="Helvetica" font-size="14" font-weight="400" font-style="normal" 
>
<polyline fill="none" vector-effect="none" points="546.105,576 546.105,49 " />
</g>

<g fill="#ff0000" fill-opacity="1" stroke="#ff0000" stroke-opacity="1" stroke-width="1" stroke-linecap="square" stroke-linejoin="bevel" transform="matrix(0,-0.75,0.75,0,420.828,90)"
font-family="Helvetica" font-size="13" font-weight="400" font-style="normal" 
>
<text fill="#ff0000" fill-opacity="1" stroke="none" xml:space="preserve" x="0" y="0" font-family="Helvetica" font-size="13" font-weight="400" font-style="normal" 
 >μ + σ (4.2&quot;)</text>
</g>

<g fill="#ff0000" fill-opacity="0.701961" stroke="#ff0000" stroke-opacity="0.701961" stroke-dasharray="8,8" stroke-dashoffset="0" stroke-width="2.66667" stroke-linecap="butt" stroke-linejoin="round" transform="matrix(0.75,0,0,0.75,0,0)"
font-family="Helvetica" font-size="13" font-weight="400" font-style="normal" 
>
<polyline fill="none" vector-effect="none" points="229.184,576 229.184,49 " />
</g>

<g fill="#ff0000" fill-opacity="1" stroke="#ff0000" stroke-opacity="1" stroke-width="1" stroke-linecap="square" stroke-linejoin="bevel" transform="matrix(0,-0.75,0.75,0,183.138,87)"
font-family="Helvetica" font-size="13" font-weight="400" font-style="normal" 
>
<text fill="#ff0000" fill-opacity="1" stroke="none" xml:space="preserve" x="0" y="0" font-family="Helvetica" font-size="13" font-weight="400" font-style="normal" 
 >μ - σ (0.6&quot;)</text>
</g>
</g>
</svg>
